<svg xmlns="http://www.w3.org/2000/svg" width="42" height="42" viewBox="0 0 42 42"><defs><style>.a{fill:#457fcd;}.b{fill:#fff;}</style></defs><circle class="a" cx="21" cy="21" r="21"/><path class="a" d="M229.359,235.226l.758-2.525h-6.776v-.631h6.986l.758-2.525H224.14a4.244,4.244,0,0,1,3.7-1.768,6.486,6.486,0,0,1,3.493,1.052l.842-2.735A8.725,8.725,0,0,0,227.844,225a7.145,7.145,0,0,0-6.86,4.5h-1.852l-.8,2.441h2.146v.884h-1.347l-.8,2.441h2.693a7.016,7.016,0,0,0,6.776,4.461,7.39,7.39,0,0,0,4.208-1.263v-3.325a5.959,5.959,0,0,1-4.166,1.81,4.345,4.345,0,0,1-3.661-1.725Zm-9.469,10.353a6.689,6.689,0,0,1-2.735-12.794v-3.409A9.894,9.894,0,1,0,229.4,241.623h-3.409A6.656,6.656,0,0,1,219.89,245.579Z" transform="translate(-201.13 -215.616)"/><path class="b" d="M229.469,257.936a9.488,9.488,0,0,0,8.922-6.313h-2.567a7.049,7.049,0,0,1-6.355,3.956,7.13,7.13,0,0,1-7.112-7.112,7.049,7.049,0,0,1,3.956-6.355v-2.567a9.466,9.466,0,0,0,3.156,18.391Zm7.912-9.048a7.213,7.213,0,0,0,3.788-1.052v-2.188a6.124,6.124,0,0,1-3.745,1.3,4.625,4.625,0,0,1-4.377-2.567h5.6l.505-1.683h-6.607a4.083,4.083,0,0,1-.042-.715,4.574,4.574,0,0,1,.042-.758h7.07l.505-1.683H233a4.57,4.57,0,0,1,4.419-2.609,6.762,6.762,0,0,1,3.24.842l.589-1.894a8.4,8.4,0,0,0-3.83-.884,6.715,6.715,0,0,0-6.565,4.5h-1.852l-.505,1.6h2.02a6.217,6.217,0,0,0-.042.884,5.642,5.642,0,0,0,.042.842h-1.515l-.505,1.6h2.4A6.536,6.536,0,0,0,237.381,248.888Z" transform="translate(-210.709 -225.195)"/></svg>